<?xml version="1.0" encoding="UTF-8" standalone="no"?>
<!-- Created with Inkscape (http://www.inkscape.org/) -->

<svg
   version="1.1"
   id="svg4262"
   xml:space="preserve"
   width="880"
   height="880"
   viewBox="0 0 880 880"
   sodipodi:docname="_skull.svg"
   inkscape:version="1.3.2 (091e20e, 2023-11-25, custom)"
   xmlns:inkscape="http://www.inkscape.org/namespaces/inkscape"
   xmlns:sodipodi="http://sodipodi.sourceforge.net/DTD/sodipodi-0.dtd"
   xmlns="http://www.w3.org/2000/svg"
   xmlns:svg="http://www.w3.org/2000/svg"
   xmlns:rdf="http://www.w3.org/1999/02/22-rdf-syntax-ns#"
   xmlns:cc="http://creativecommons.org/ns#"
   xmlns:dc="http://purl.org/dc/elements/1.1/"><metadata
     id="metadata4268"><rdf:RDF><cc:Work
         rdf:about=""><dc:format>image/svg+xml</dc:format><dc:type
           rdf:resource="http://purl.org/dc/dcmitype/StillImage" /><cc:license
           rdf:resource="http://artlibre.org/licence/lal" /></cc:Work><cc:License
         rdf:about="http://artlibre.org/licence/lal"><cc:permits
           rdf:resource="http://creativecommons.org/ns#Reproduction" /><cc:permits
           rdf:resource="http://creativecommons.org/ns#Distribution" /><cc:permits
           rdf:resource="http://creativecommons.org/ns#DerivativeWorks" /><cc:requires
           rdf:resource="http://creativecommons.org/ns#ShareAlike" /><cc:requires
           rdf:resource="http://creativecommons.org/ns#Notice" /><cc:requires
           rdf:resource="http://creativecommons.org/ns#Attribution" /></cc:License></rdf:RDF></metadata><defs
     id="defs4266" /><sodipodi:namedview
     pagecolor="#ffffff"
     bordercolor="#666666"
     borderopacity="1"
     objecttolerance="10"
     gridtolerance="10"
     guidetolerance="10"
     inkscape:pageopacity="0"
     inkscape:pageshadow="2"
     inkscape:window-width="1920"
     inkscape:window-height="1051"
     id="namedview4264"
     showgrid="false"
     inkscape:zoom="0.68787421"
     inkscape:cx="599.67359"
     inkscape:cy="490.64203"
     inkscape:window-x="-9"
     inkscape:window-y="-9"
     inkscape:window-maximized="1"
     inkscape:current-layer="g4270"
     inkscape:showpageshadow="0"
     inkscape:pagecheckerboard="1"
     inkscape:deskcolor="#505050" /><g
     id="g4270"
     inkscape:groupmode="layer"
     inkscape:label="skull-skeleton-2-silhouette-freesvg.org"
     transform="matrix(1.3333333,0,0,-1.3333333,0,880)"><path
       d="m 330.29,289.404 15.814,-26.804 15.814,-26.806 -31.628,12.888 -31.629,-12.888 15.815,26.806 z m -41.22,217.337 -47.918,-19.113 c -18.436,-7.352 -31.619,-20.404 -39.157,-38.765 l -9.691,-23.607 c -5.507,-13.413 -6.762,-26.351 -3.936,-40.572 l 9.318,-46.891 -14.083,26.2 -43.587,11.986 -6.724,28.018 -48.567,33.996 -32.501,-32.874 14.569,-36.985 -15.316,-14.196 16.811,-42.963 43.336,10.088 -35.117,2.615 -7.471,26.524 32.128,27.458 -21.668,-3.176 -8.219,25.777 13.448,15.691 32.876,-23.535 7.846,-33.997 74.244,-30.717 4.223,-21.249 10.753,11.13 -6.351,79.947 16.396,-77.063 c 1.647,7.921 7.11,14.585 15.042,17.754 l 36.594,14.616 c 6.913,2.761 13.952,2.414 20.56,-1.015 l 6.5,-3.372 c 7.042,-3.655 11.555,-9.782 12.951,-17.592 l 1.199,-6.693 c 1.796,-10.041 -2.389,-19.639 -10.97,-25.155 l -25.06,-16.112 c -4.967,-3.193 -10.211,-4.425 -16.08,-3.776 l -18.208,2.007 c -11.669,1.285 -20.624,10.267 -21.876,21.94 l -0.475,4.44 -17.508,-18.505 -8.137,-11.268 c -4.773,-6.607 -6.744,-14.271 -5.829,-21.857 l -9.027,15.061 -60.222,-16.154 -20.295,23.533 -69.664,1.599 L 13,225.363 46.136,198.098 35.549,173.685 l 38.366,-31.747 43.693,38.994 -40.336,-20.81 -20.446,21.538 23.267,48.89 -22.7,-17.629 -20.939,20.294 7.823,24.663 47.395,-1.607 24.276,-28.761 81.691,15.872 13.795,-26.665 c 6.197,-11.983 18.656,-18.468 32.026,-16.668 l 16.97,2.284 -3.949,-24.571 c -1.613,-10.036 4.436,-19.574 14.202,-22.397 2.197,-0.634 4.342,-1.24 6.439,-1.815 l 10.329,44.975 1.325,-47.995 c 18.874,-4.547 34.067,-6.324 50.062,-5.332 l 3.096,26.88 6.006,-26.029 c 9.695,1.197 19.963,3.354 31.719,6.473 l 0.445,39.512 9.537,-36.742 c 0.087,0.026 0.17,0.05 0.256,0.073 9.765,2.822 15.815,12.361 14.203,22.397 l -3.95,24.571 16.971,-2.284 c 13.368,-1.8 25.827,4.685 32.025,16.668 l 13.793,26.665 81.693,-15.872 24.275,28.761 47.396,1.607 7.821,-24.663 -20.936,-20.294 -22.7,17.629 23.265,-48.89 -20.445,-21.538 -40.337,20.81 43.695,-38.994 38.364,31.747 -10.587,24.413 33.138,27.265 -21.208,54.556 -69.664,-1.599 -20.294,-23.533 -60.224,16.154 -9.025,-15.061 c 0.914,7.586 -1.057,15.25 -5.829,21.857 l -8.14,11.268 -17.467,18.466 -0.515,-4.791 c -1.252,-11.675 -10.206,-20.655 -21.875,-21.942 l -18.208,-2.007 c -5.869,-0.647 -11.113,0.585 -16.079,3.779 l -25.062,16.11 c -8.581,5.515 -12.765,15.115 -10.97,25.155 l 1.198,6.693 c 1.398,7.81 5.91,13.938 12.953,17.592 l 6.501,3.373 c 6.607,3.428 13.645,3.775 20.557,1.015 l 36.597,-14.616 c 7.865,-3.141 13.305,-9.723 14.998,-17.559 l 16.44,77.258 -6.352,-79.947 10.754,-11.13 4.221,21.249 74.245,30.717 7.846,33.997 32.875,23.535 13.449,-15.691 -8.218,-25.777 -21.669,3.176 32.129,-27.458 -7.472,-26.524 -35.117,-2.615 43.335,-10.088 16.812,42.963 -15.318,14.196 14.569,36.985 -32.5,32.874 -48.567,-33.996 -6.724,-28.018 -43.586,-11.986 -14.083,-26.2 9.318,46.891 c 2.825,14.221 1.571,27.159 -3.936,40.572 l -9.692,23.607 c -7.536,18.361 -20.72,31.413 -39.155,38.765 l -47.92,19.113 c -27.505,10.97 -54.934,10.97 -82.439,0"
       style="fill:#1c1a19;fill-opacity:1;fill-rule:evenodd;stroke:none"
       id="path4372"
       inkscape:connector-curvature="0" /></g></svg>
